<svg version="1.1" id="Layer_1" xmlns="http://www.w3.org/2000/svg" xmlns:xlink="http://www.w3.org/1999/xlink" x="0px" y="0px"
	 width="100%" viewBox="0 0 1082 1036" enable-background="new 0 0 1082 1036" xml:space="preserve">
<path fill="#F7F7F6" opacity="1.000000" stroke="none" 
	d="
M644.000000,1037.000000 
	C430.858368,1037.000000 218.216736,1036.989868 5.575143,1037.084961 
	C1.966090,1037.086548 0.894246,1036.497070 0.895539,1032.576172 
	C1.008430,690.283142 1.010012,347.990112 0.882798,5.697105 
	C0.881250,1.531577 1.857476,0.895597 5.801852,0.896824 
	C363.259735,1.008008 720.717651,1.007665 1078.175537,0.900057 
	C1082.072754,0.898884 1083.121460,1.460618 1083.119873,5.674493 
	C1082.989502,347.800842 1082.989136,689.927185 1083.122314,1032.053589 
	C1083.124023,1036.426758 1082.037109,1037.104980 1077.947388,1037.101562 
	C933.465027,1036.980103 788.982483,1037.000000 644.000000,1037.000000 
z"/>
<path fill="#535250" opacity="1.000000" stroke="none" 
	d="
M946.762085,658.300415 
	C948.836975,658.649475 950.563660,658.897766 952.677734,659.350098 
	C953.499146,659.379517 953.939453,659.370667 954.665283,659.697510 
	C967.292358,660.900208 977.703491,665.774353 985.630615,675.449890 
	C986.826050,676.908875 988.480835,678.596252 986.721985,680.741699 
	C985.273438,682.508606 983.408203,682.008850 981.669373,681.332642 
	C956.396423,671.504272 931.097595,675.739929 905.984802,681.681030 
	C882.589050,687.216003 861.575745,698.430725 840.867493,710.349487 
	C820.524658,722.058044 799.984619,733.466431 777.306702,740.315186 
	C760.305298,745.449768 742.843445,747.936401 725.239685,749.471680 
	C699.805908,751.689697 674.383728,751.909180 648.925232,749.162781 
	C610.230103,744.988525 574.869934,731.468994 542.026245,711.198792 
	C513.559387,693.629883 489.561249,671.340698 473.427002,641.524048 
	C468.595428,632.595215 464.352997,623.363708 461.175629,613.679199 
	C458.599091,605.825745 457.769043,605.538696 449.594696,608.034668 
	C435.690857,612.280090 421.682281,615.877991 406.906921,613.867859 
	C402.093109,613.212952 397.439453,612.013855 392.938629,610.197571 
	C391.048035,609.434570 389.046570,608.605164 388.841187,606.296631 
	C388.620850,603.820190 390.702637,602.872437 392.549316,602.162659 
	C400.625458,599.058411 408.798126,596.201660 416.843292,593.021118 
	C450.947296,579.538391 480.902405,559.911865 505.665192,532.670959 
	C511.057739,526.738770 515.536560,520.113525 519.915039,513.427246 
	C523.834412,507.442078 523.133972,506.090424 515.896423,505.110321 
	C495.284302,502.319000 474.817596,502.243866 454.287506,506.525330 
	C436.481812,510.238586 418.824829,514.163818 402.118683,521.585571 
	C396.743256,523.973633 391.952026,527.219971 387.385315,530.855347 
	C385.902130,532.036072 384.330688,533.246582 382.488464,531.774597 
	C380.795471,530.421936 381.119568,528.641541 381.822418,526.770203 
	C386.105988,515.365173 394.392944,507.297211 403.964569,500.395203 
	C420.259094,488.645538 438.411804,481.748322 458.493500,480.093628 
	C467.703644,479.334747 468.585144,478.393219 468.231689,469.080811 
	C467.737640,456.063538 469.418701,443.129425 469.600281,430.139862 
	C469.623535,428.474243 469.756317,426.807281 469.713074,425.144165 
	C469.558350,419.196472 468.287903,417.949341 462.529419,418.515808 
	C449.178284,419.829071 436.261841,422.865509 424.016632,428.497803 
	C422.372192,429.254150 420.629181,429.922333 418.861115,430.249939 
	C416.904266,430.612488 415.248505,429.739258 414.289764,427.917938 
	C413.288025,426.014984 413.922607,424.388916 415.311554,422.936096 
	C428.787903,408.840485 444.069733,398.168640 464.397247,397.103058 
	C469.728760,396.823608 472.574921,393.914307 473.341766,388.788269 
	C474.475952,381.206879 475.591614,373.630157 478.331268,366.400635 
	C479.055328,364.489960 479.575287,362.424530 482.023132,362.254761 
	C484.600647,362.075989 485.906952,363.889679 486.801178,365.968292 
	C489.810211,372.962830 490.376526,380.466461 491.298492,387.896912 
	C492.194794,395.120636 493.925415,396.951569 501.149689,398.281525 
	C511.305969,400.151215 520.406006,404.550110 529.175049,409.796143 
	C530.529480,410.606445 532.064758,412.374756 533.603821,411.146423 
	C534.991150,410.039154 534.163086,407.992096 533.698425,406.429169 
	C532.039124,400.848633 530.160278,395.330963 528.609131,389.721893 
	C527.980835,387.450165 526.798096,384.639221 529.917664,383.122986 
	C532.971313,381.638733 534.852600,383.573395 536.609741,385.819824 
	C557.827515,412.945648 565.171570,443.933594 562.288879,477.782806 
	C562.147522,479.442719 562.151184,481.130310 561.840393,482.757843 
	C560.285950,490.897888 563.617615,495.848663 570.616211,500.349640 
	C581.735901,507.501068 592.944702,515.021851 599.722351,527.042419 
	C601.341248,529.913513 602.378784,533.130798 603.509888,536.251892 
	C604.230713,538.240967 604.143616,540.219971 602.127563,541.592834 
	C600.017944,543.029358 598.420288,541.952576 596.776184,540.602417 
	C585.342285,531.212830 572.403992,524.412292 558.845093,518.700256 
	C552.768921,516.140503 552.127747,516.393677 549.139771,522.125244 
	C537.135986,545.150696 519.502502,563.471252 499.757629,579.760437 
	C492.381378,585.845703 490.077240,592.070190 492.807037,601.054504 
	C494.945496,608.092529 497.495667,614.935791 500.462616,621.624756 
	C502.491119,626.198059 505.331329,626.930481 510.873108,624.737061 
	C529.862976,617.220642 545.002380,604.945007 556.386658,587.973022 
	C558.133484,585.368835 559.188721,580.722351 563.244934,581.878601 
	C567.481628,583.086304 567.075745,587.926025 566.948547,591.353027 
	C566.237061,610.521667 557.477295,625.675964 542.790161,637.587341 
	C538.009216,641.464661 533.027466,645.109558 527.987244,648.646606 
	C524.522400,651.078125 524.062134,653.334473 526.707031,656.876099 
	C530.075439,661.386536 534.359253,664.726013 538.826721,667.904785 
	C556.926819,680.784180 575.511108,692.770203 597.605347,698.801331 
	C605.980896,701.590088 613.741333,705.132324 622.479065,706.890076 
	C624.575073,707.815796 626.345398,708.554932 628.582397,709.046875 
	C631.258911,710.245117 633.779236,710.809814 636.514160,711.801025 
	C637.464966,712.161621 638.072021,712.467468 639.082031,712.608154 
	C640.321533,712.716736 641.219421,712.840698 642.452942,713.049500 
	C643.465393,713.262268 644.115234,713.514404 645.160217,713.611877 
	C646.480408,713.697571 647.438904,713.832092 648.770874,714.034973 
	C649.900635,714.268921 650.639648,714.531128 651.840942,714.482544 
	C668.668945,715.884644 685.098450,716.710632 701.595581,716.489502 
	C730.900208,716.096680 759.636292,712.197815 787.707092,703.618469 
	C793.953552,701.709412 799.765076,698.824036 806.115051,696.126465 
	C808.020081,695.637756 809.525330,695.249268 811.282593,694.433960 
	C813.893066,693.629578 816.258728,693.205750 818.459229,691.426636 
	C819.398926,690.823730 820.061523,690.472717 821.058655,689.921387 
	C835.946594,681.926575 850.966919,675.173645 866.523071,669.648010 
	C885.438416,662.929077 904.829651,658.323120 924.916931,657.021423 
	C927.053223,656.882935 929.248535,656.758362 931.756226,657.451294 
	C935.140625,657.742126 938.152832,657.879028 941.621704,657.999268 
	C943.523865,658.048706 944.980225,657.897034 946.762085,658.300415 
z"/>
<path fill="#545351" opacity="1.000000" stroke="none" 
	d="
M266.754150,254.316330 
	C266.773132,243.175674 266.863281,232.511871 266.963867,221.848160 
	C266.996613,218.373856 266.159943,215.917694 261.818359,216.560883 
	C235.165405,220.509445 209.129868,226.326996 185.368942,239.883591 
	C171.519470,247.785278 161.556213,259.440186 152.451981,272.089417 
	C151.445038,273.488464 151.015488,275.950439 148.742905,275.626282 
	C146.169098,275.259186 146.490509,272.720673 146.063034,270.836517 
	C144.311081,263.114716 146.760162,255.962692 149.249054,248.897018 
	C156.209335,229.137451 170.617966,216.551071 188.932266,207.518494 
	C210.625778,196.819290 233.646774,191.466217 257.573242,189.408768 
	C266.322601,188.656433 266.631409,188.374146 266.666351,179.430252 
	C266.768585,153.267456 266.869232,127.104645 266.953796,100.941780 
	C266.984985,91.290222 265.597229,90.271713 256.576233,93.050865 
	C232.873947,100.352943 214.752747,115.097260 200.180618,134.803680 
	C189.836014,148.793076 182.000931,164.237045 173.515015,179.313614 
	C172.942902,180.330032 172.343170,181.330872 171.758804,182.340408 
	C170.701767,184.166626 169.468353,185.661301 167.008545,185.063446 
	C164.494690,184.452454 164.239929,182.383987 164.107513,180.383606 
	C163.618805,173.000107 164.098145,165.647736 166.667084,158.687332 
	C177.189697,130.176895 192.125214,104.670097 215.477539,84.413376 
	C247.500854,56.635117 293.954010,53.534988 329.047760,77.110428 
	C362.757141,99.755913 384.010742,131.125229 395.307587,169.703781 
	C396.492065,173.748718 396.764252,177.910034 396.032104,182.076599 
	C395.658020,184.205490 395.297272,186.605499 392.639893,187.073532 
	C389.652191,187.599731 389.357056,184.882965 388.367218,183.071945 
	C373.077454,155.097702 355.094269,129.288040 329.059937,110.069466 
	C319.500397,103.012634 308.921936,97.739670 297.958282,93.194336 
	C294.343964,91.695900 292.964447,92.894104 292.968140,96.492165 
	C292.979828,107.823318 292.963806,119.154755 293.046387,130.485443 
	C293.072906,134.127533 295.337646,135.723007 298.745117,136.204437 
	C309.267151,137.691040 318.955811,141.503967 328.340790,146.420715 
	C336.936798,150.924088 342.351959,157.938232 346.006561,166.622421 
	C346.665894,168.189056 347.380615,169.887909 345.720306,171.186340 
	C344.035767,172.503708 342.949341,170.727676 341.845703,169.959549 
	C329.683685,161.494904 316.118958,156.806900 301.522522,154.946426 
	C294.331818,154.029907 292.742249,155.580719 293.231537,162.716751 
	C293.688049,169.375000 293.705658,176.030228 293.249481,182.683273 
	C292.959015,186.920273 294.654694,189.386459 299.060242,189.674683 
	C333.653290,191.937836 361.854340,208.067902 387.028931,230.525299 
	C397.828186,240.158997 405.206177,252.116455 409.192444,266.092957 
	C409.973907,268.832886 410.441895,271.614441 410.309326,274.471771 
	C410.214294,276.520264 410.014404,278.521271 407.615997,279.312958 
	C405.108124,280.140747 403.850708,278.436615 402.774445,276.760986 
	C396.261536,266.621094 387.083069,259.219269 377.731781,251.931335 
	C355.272858,234.427933 330.113342,222.877167 302.210815,217.283676 
	C294.298828,215.697586 293.608490,216.356018 293.540344,224.491608 
	C293.455231,234.650513 293.259338,244.808487 293.048126,255.414474 
	C292.139954,256.851471 290.984863,257.049866 289.803375,256.956482 
	C283.813477,256.483154 277.809540,256.809540 271.816833,256.589325 
	C269.991547,256.522247 268.114563,256.435303 266.754150,254.316330 
z"/>
<path fill="#545251" opacity="1.000000" stroke="none" 
	d="
M391.264954,694.716980 
	C367.982513,670.836243 355.616699,641.715393 347.368530,610.355225 
	C339.661804,581.053650 338.974915,551.445862 342.427307,521.571289 
	C343.197144,514.909424 342.638397,514.486328 335.819946,515.721619 
	C326.423492,517.424011 316.978485,518.683838 307.944305,514.093140 
	C305.636566,512.920471 302.570953,511.973358 303.326965,508.478210 
	C303.987305,505.425262 306.749969,505.397125 309.300598,505.099396 
	C330.079926,502.674072 342.492554,489.385010 351.182373,471.913605 
	C364.100250,445.941223 378.331116,420.786774 394.838928,396.905396 
	C403.010620,385.083618 413.220154,375.467834 424.688110,367.030243 
	C426.873077,365.422577 429.252441,363.627960 431.759430,366.235840 
	C434.107788,368.678680 432.826630,371.254883 431.189331,373.484283 
	C414.007690,396.879822 401.606781,422.885101 390.638000,449.528595 
	C368.445068,503.436005 362.826721,558.661011 379.804382,615.175537 
	C388.978912,645.715332 406.473175,671.103516 428.931885,693.449280 
	C437.828583,702.301270 448.026947,709.479370 457.431000,717.655457 
	C458.058929,718.201416 458.681427,718.766357 459.227295,719.391602 
	C460.999847,721.421753 462.959473,723.493103 461.394653,726.464539 
	C459.769867,729.549927 456.976929,729.421265 454.005554,728.951172 
	C440.162537,726.761353 427.364868,721.905762 415.469055,714.476746 
	C406.645569,708.966492 398.825592,702.296387 391.264954,694.716980 
z"/>
<path fill="#535250" opacity="1.000000" stroke="none" 
	d="
M293.114685,342.640686 
	C293.346222,361.451508 293.597168,379.770569 293.649384,398.090240 
	C293.661896,402.488922 295.575317,403.682129 299.557526,402.896118 
	C339.763245,394.960327 369.912018,373.981537 386.503754,335.608307 
	C388.672211,330.593140 389.908905,325.177673 391.624023,319.963013 
	C392.619751,316.935547 394.598755,315.268219 397.967041,315.493561 
	C401.435608,315.725616 403.516266,317.502258 404.212738,320.866211 
	C405.589752,327.516998 404.927155,334.114380 403.620941,340.692566 
	C391.711884,400.668304 334.422302,444.180603 273.505157,439.512421 
	C222.672791,435.617065 178.794266,401.310516 162.469681,352.719269 
	C160.030991,345.460297 157.394104,338.254425 156.659073,330.557465 
	C156.501709,328.909607 156.443329,327.216431 156.635361,325.578827 
	C156.994400,322.516693 157.781006,319.397797 161.197388,318.509674 
	C164.516632,317.646790 166.537476,320.144287 167.934906,322.572083 
	C172.160522,329.913269 175.833221,337.583344 180.248764,344.802734 
	C198.028580,373.872589 224.011719,392.088623 256.426300,401.559662 
	C262.659088,403.380798 263.939484,402.415527 263.990814,395.981384 
	C264.131714,378.326935 264.144012,360.671509 264.303955,342.565125 
	C264.751678,341.773376 265.008575,341.259521 265.519135,341.179199 
	C274.327179,339.793518 283.137421,339.748230 291.941589,341.214203 
	C292.449249,341.298706 292.709290,341.809326 293.114685,342.640686 
z"/>
<path fill="#DEC486" opacity="1.000000" stroke="none" 
	d="
M293.531067,343.039795 
	C289.429993,341.202484 285.432831,342.428986 281.565613,342.270325 
	C276.142487,342.047913 270.703278,342.218933 264.835815,342.167725 
	C245.310257,339.094818 228.148621,331.901215 213.484604,319.033997 
	C204.977310,311.569092 203.832123,302.029388 205.326172,291.757446 
	C206.949097,280.599548 214.436035,273.493713 223.375076,267.965393 
	C234.498871,261.085938 246.901428,257.601715 259.845520,255.998642 
	C261.995117,255.732437 264.072540,255.156204 266.321167,253.939835 
	C269.543854,255.846664 272.781952,254.691299 275.842194,254.836533 
	C281.283417,255.094788 286.762512,254.620605 292.569702,255.814697 
	C306.560364,257.747192 319.669495,261.390747 331.430542,268.456512 
	C340.389801,273.839050 348.891510,280.238800 351.919678,291.105042 
	C354.646820,300.891052 353.455109,309.963104 346.461914,317.981659 
	C336.842438,329.011566 324.526855,335.494904 310.763031,339.369263 
	C305.261810,340.917847 299.196960,340.180786 293.531067,343.039795 
z"/>
<path fill="#545251" opacity="1.000000" stroke="none" 
	d="
M204.854462,907.000366 
	C203.873779,880.410156 203.469254,854.310425 203.611908,828.202393 
	C203.656433,820.053528 204.450607,819.170105 212.428101,819.281067 
	C224.414429,819.447632 236.417038,818.769775 248.383408,820.077454 
	C283.383911,823.902466 306.673523,851.766541 304.359406,886.914734 
	C303.444275,900.814514 301.800476,914.449707 294.230408,926.642334 
	C284.683350,942.019165 270.365692,950.014343 252.975037,952.678833 
	C239.600922,954.727966 226.081360,954.600586 212.616119,953.065674 
	C206.329636,952.349121 204.768829,950.821045 204.718964,944.486572 
	C204.621902,932.158875 204.793655,919.829163 204.854462,907.000366 
z"/>
<path fill="#565553" opacity="1.000000" stroke="none" 
	d="
M508.539703,847.371948 
	C521.484375,867.388977 532.834229,887.942200 544.923706,908.052185 
	C546.012756,909.863708 546.851379,913.087952 548.879333,912.660095 
	C551.453308,912.117065 549.964111,908.947388 549.988708,907.014160 
	C550.281311,884.021240 550.399414,861.026184 550.610474,838.032104 
	C550.657959,832.860229 550.687927,827.621582 553.920532,823.168457 
	C557.656433,818.021912 561.722717,817.922119 565.732239,822.776978 
	C568.292969,825.877441 569.293030,829.560242 569.360046,833.456116 
	C569.961487,868.445557 569.905701,903.433167 568.713135,938.411011 
	C568.575256,942.455078 567.349426,946.227539 564.752747,949.513184 
	C560.311035,955.133240 555.684448,955.544556 550.471008,950.431702 
	C542.411560,942.527710 536.841858,932.841309 531.218994,923.195801 
	C519.570618,903.214111 507.880768,883.256531 496.215271,863.284790 
	C495.618561,862.263245 494.935577,861.365479 493.520142,860.834106 
	C492.086853,862.721313 492.727142,864.934937 492.693787,866.942322 
	C492.300720,890.593750 493.260986,914.264038 491.602295,937.899658 
	C491.279358,942.501526 490.171112,946.800598 487.529938,950.565369 
	C484.693939,954.608093 481.248230,954.670593 478.089996,950.854980 
	C475.768982,948.050964 474.983795,944.669739 474.665009,941.112366 
	C473.323639,926.144531 473.999817,911.135986 473.816437,896.149109 
	C473.573822,876.324341 473.733032,856.493164 473.894501,836.666199 
	C473.925476,832.862610 474.498077,829.008423 475.294556,825.278809 
	C476.505463,819.608704 481.097809,817.622375 486.370758,820.208496 
	C489.275909,821.633240 491.439270,823.931763 493.474976,826.387390 
	C498.908051,832.940674 503.557007,840.053650 508.539703,847.371948 
z"/>
<path fill="#545351" opacity="1.000000" stroke="none" 
	d="
M739.619202,853.433228 
	C743.847900,843.779724 747.871704,834.453247 751.992676,825.169861 
	C754.569397,819.365234 758.375183,814.893311 765.333862,814.820618 
	C772.718872,814.743469 777.286072,818.773376 780.246216,825.296997 
	C796.548523,861.224609 811.340942,897.790283 826.420410,934.234924 
	C826.800720,935.154114 827.050171,936.129028 827.336853,937.085083 
	C828.675842,941.549500 829.443359,946.032959 825.473389,949.593201 
	C822.506897,952.253418 816.921814,951.607971 811.888977,948.504395 
	C808.336060,946.313477 806.042297,943.124512 804.367981,939.414856 
	C800.532898,930.917725 796.533508,922.487549 792.976318,913.875122 
	C791.103333,909.340271 788.194702,907.558899 783.397705,907.661682 
	C773.244080,907.879211 763.094543,907.845276 752.944580,906.982727 
	C742.533447,906.098022 738.095947,909.132446 734.144958,918.761963 
	C730.989136,926.453552 727.714417,934.096436 724.488892,941.759338 
	C723.092651,945.076355 720.739746,947.598389 717.935608,949.783203 
	C714.764771,952.253845 711.410583,953.232910 707.816833,950.893066 
	C704.273132,948.585754 702.838684,945.243530 703.579651,941.008179 
	C704.595154,935.203369 707.201599,929.930786 709.423035,924.589844 
	C719.269043,900.917542 729.416748,877.370667 739.619202,853.433228 
z"/>
<path fill="#545452" opacity="1.000000" stroke="none" 
	d="
M419.523956,935.559814 
	C416.096527,928.113586 412.813446,921.016785 409.631195,913.875061 
	C408.058289,910.345032 405.298798,909.105225 401.638306,909.104126 
	C388.811249,909.100220 375.977936,909.261169 363.159912,908.900574 
	C357.269043,908.734802 353.987396,911.010742 351.756134,916.364563 
	C348.044922,925.269348 343.812317,933.958740 339.721802,942.702576 
	C338.014526,946.351929 335.797272,949.673645 332.401520,952.014343 
	C326.196716,956.291382 319.909607,953.382935 319.159363,945.965210 
	C318.865784,943.062622 319.310394,940.303040 320.406952,937.653198 
	C335.808960,900.434448 350.475464,862.902832 367.807251,826.504883 
	C370.436066,820.984192 374.008942,817.073425 380.574951,816.996765 
	C387.594604,816.914795 392.011688,820.588013 394.990082,826.650269 
	C406.159180,849.384216 415.125061,873.066650 425.065613,896.328491 
	C430.560760,909.187683 435.824219,922.147034 441.082397,935.105713 
	C442.201111,937.862732 443.157288,940.760864 443.642792,943.684570 
	C444.782196,950.546082 439.758972,954.853638 433.008026,952.943481 
	C428.751129,951.739075 425.800751,948.917725 423.930145,944.945740 
	C422.511383,941.933044 421.115784,938.909485 419.523956,935.559814 
z"/>
<path fill="#545452" opacity="1.000000" stroke="none" 
	d="
M619.046692,819.928284 
	C622.131104,824.305298 623.295044,828.854065 623.404236,833.832581 
	C624.021301,861.968262 624.695068,890.101868 624.332153,918.248596 
	C624.206299,928.004822 626.014526,929.707947 635.875122,930.092590 
	C646.846252,930.520569 657.851440,929.906860 668.793579,931.280945 
	C674.356140,931.979309 679.515869,933.699341 684.105835,936.901123 
	C687.907837,939.553284 687.964844,942.390198 684.450867,945.428833 
	C679.067078,950.084473 672.423889,950.909546 665.740295,951.265991 
	C647.613953,952.232361 629.471619,952.577820 611.324219,951.949341 
	C604.946838,951.728516 601.555237,948.749512 601.549194,942.372925 
	C601.531372,923.577026 600.922058,904.794128 601.915833,885.975342 
	C602.775269,869.699707 602.142029,853.344666 602.143738,837.024719 
	C602.144287,831.636719 602.559814,826.367798 605.727051,821.725586 
	C609.664307,815.954834 613.892334,815.271301 619.046692,819.928284 
z"/>
<path fill="#545351" opacity="1.000000" stroke="none" 
	d="
M799.562439,643.306335 
	C807.863403,628.560730 819.477844,617.074707 830.491028,605.099915 
	C836.807190,598.232239 842.694397,591.072510 846.783569,582.567688 
	C850.511658,574.813660 857.665161,573.440002 864.182678,579.061890 
	C865.061951,579.820312 865.850830,580.683472 866.910767,581.750122 
	C867.579651,582.530640 868.011169,583.065125 868.464722,583.987122 
	C868.721619,584.679138 868.874756,585.043762 869.155762,585.676270 
	C873.273926,594.880310 868.806824,601.723328 863.482361,608.730530 
	C859.980713,612.244446 856.719360,615.441467 853.213501,618.869812 
	C851.735962,620.143250 850.729065,621.436279 849.061401,622.492676 
	C848.749268,622.642944 848.339294,622.855774 848.159668,623.000977 
	C846.708740,624.143005 845.727722,625.472595 844.007202,626.446045 
	C843.681519,626.564331 843.290894,626.791687 843.131287,626.951660 
	C842.467468,627.554443 841.967957,628.002747 841.164062,628.608521 
	C837.352905,631.675842 833.817871,634.552490 830.093872,637.710938 
	C829.443115,638.500061 828.961975,638.986816 828.117188,639.575562 
	C827.570007,639.969971 827.316956,640.188599 826.931396,640.622803 
	C826.472229,641.560181 825.875854,642.046082 825.030884,642.647583 
	C824.333862,643.102783 823.907349,643.461548 823.287964,644.022949 
	C820.612061,649.324463 815.889282,648.285339 811.156189,648.433105 
	C807.191223,648.356262 803.640015,648.892700 799.744019,647.815308 
	C797.841125,646.317627 798.388550,644.993591 799.562439,643.306335 
z"/>
<path fill="#E1D1AA" opacity="1.000000" stroke="none" 
	d="
M860.281372,839.136658 
	C860.023071,835.258728 862.716064,832.677307 864.978210,830.688843 
	C874.383911,822.421082 884.429749,815.358643 898.020630,815.994873 
	C910.650085,816.586121 920.478699,822.270874 928.597595,831.462158 
	C934.987000,838.695435 940.216980,846.755615 943.917419,855.648682 
	C946.259033,861.276367 948.435486,867.201172 948.795410,873.283081 
	C949.557373,886.158630 950.726685,899.167053 946.730469,911.785828 
	C943.771362,921.129761 938.175903,928.852905 931.755859,936.216919 
	C922.183533,947.196655 910.163391,952.616211 895.932556,952.703918 
	C886.659668,952.761169 878.334656,948.954651 870.491272,943.972473 
	C858.357971,936.265381 850.763489,925.048950 844.808411,912.378418 
	C841.878479,906.144348 842.372803,899.463562 842.257324,892.959778 
	C842.084229,883.215942 843.211487,873.529480 846.034729,864.124084 
	C848.801392,854.907349 852.395569,846.126160 859.638184,839.031860 
	C861.720886,842.614197 858.108948,844.554749 857.115356,847.706421 
	C856.404236,849.069153 855.800293,850.083496 855.182129,851.486084 
	C853.170288,855.795532 850.953979,859.642395 849.987610,864.371338 
	C849.659241,865.610962 849.324158,866.482178 848.970520,867.716187 
	C848.592651,868.957581 848.314209,869.861267 848.265137,871.187927 
	C848.179321,872.058472 848.101013,872.557007 847.913208,873.433105 
	C847.201599,879.381775 846.030029,884.902466 846.375732,890.950012 
	C846.345581,891.862061 846.299988,892.376526 846.168945,893.257996 
	C843.878784,902.654785 848.365784,910.099915 852.030518,918.064331 
	C852.392334,918.530396 852.525513,918.724731 852.828064,919.226929 
	C854.835388,923.729919 856.776367,927.843811 861.517883,930.146973 
	C861.971130,930.461060 862.138367,930.602539 862.505432,930.998169 
	C863.285522,932.355652 864.051331,933.311829 865.197266,934.357666 
	C865.781555,935.067566 866.101562,935.590942 866.658875,936.321411 
	C867.659668,937.517517 868.580933,938.339050 869.970459,939.106934 
	C870.438293,939.398315 870.623962,939.521851 871.081238,939.848022 
	C876.701538,943.799866 882.535217,946.437927 889.319214,947.767517 
	C894.766357,949.600464 899.606750,947.404114 904.917969,946.930908 
	C908.197876,947.980164 910.804199,947.150208 913.253967,945.581543 
	C916.432068,943.546753 920.006470,942.118225 922.955811,939.109375 
	C925.966736,934.502563 929.221252,930.648804 933.019043,927.103760 
	C936.789612,923.584229 939.754578,919.266296 939.141846,913.534058 
	C939.034485,912.529541 939.458923,911.507690 940.147644,910.782288 
	C945.919189,904.703430 945.225403,897.060791 945.086365,889.665100 
	C944.996399,884.885193 943.630859,880.152161 944.435181,875.306702 
	C944.629517,874.135803 944.339722,872.951294 943.635681,871.984070 
	C940.448303,867.605286 939.659424,862.606445 939.709045,857.010498 
	C939.051270,852.490051 937.434326,848.834290 933.986511,845.750366 
	C932.087952,843.399719 931.096436,840.815674 928.851318,838.713013 
	C926.510864,835.658386 924.848267,832.472290 921.586426,830.213623 
	C921.151917,829.884705 920.985046,829.745483 920.588440,829.378723 
	C919.499268,827.811279 918.193481,827.211548 916.368408,826.845581 
	C910.875916,824.263245 906.533142,820.029053 900.132324,819.377930 
	C898.799927,819.390503 897.827393,819.408325 896.486694,819.388062 
	C891.469910,819.024414 887.793945,821.967957 883.242859,823.188660 
	C877.546570,824.934875 873.224182,828.026672 869.716553,832.817200 
	C868.569763,834.022278 867.453552,834.784851 866.470642,836.170044 
	C864.515991,837.685974 862.801392,838.965698 860.281372,839.136658 
z"/>
<path fill="#D2C49F" opacity="1.000000" stroke="none" 
	d="
M931.975708,657.270874 
	C915.044128,658.991211 898.061035,661.061401 881.588013,666.030334 
	C862.262451,671.859680 843.631470,679.431885 825.764404,688.853271 
	C824.442993,689.550049 823.064819,690.139099 821.358887,690.807129 
	C819.599670,688.945923 820.732178,687.732544 822.194763,686.721802 
	C824.112061,685.396912 826.125549,684.218506 828.178284,683.107544 
	C834.291199,679.799133 840.660706,676.279907 846.895752,674.091675 
	C855.223022,671.168945 862.875793,666.815857 871.227539,664.146240 
	C872.437988,663.759277 873.704468,663.654297 874.974426,663.528320 
	C865.525269,663.260864 856.003784,664.107666 846.379333,661.568970 
	C845.329163,660.842773 844.855286,660.032898 843.866943,659.299072 
	C842.853210,658.731506 842.116516,658.325989 841.132446,657.732727 
	C840.229858,657.085205 839.683289,656.470947 838.638428,656.039185 
	C837.381897,655.544861 836.393372,655.212036 835.068604,654.854736 
	C832.069763,654.295654 829.792908,652.744446 826.894226,651.898071 
	C826.090210,651.790283 825.647461,651.655029 824.956665,651.229614 
	C824.505615,650.548523 824.470703,650.088501 824.794189,649.345215 
	C830.178040,647.691040 834.342712,650.994019 838.436646,652.764038 
	C852.931763,659.030884 867.425476,660.161377 883.032410,657.649231 
	C898.493652,655.160522 914.291199,653.776550 930.045776,656.181091 
	C930.662292,656.275208 931.231689,656.677795 931.975708,657.270874 
z"/>
<path fill="#DAC89C" opacity="1.000000" stroke="none" 
	d="
M623.296997,708.150146 
	C614.289124,706.515564 605.959473,703.987183 598.159485,699.104980 
	C599.096680,694.498535 603.309814,693.294006 606.382874,691.661560 
	C613.772888,687.735718 617.890320,680.945679 621.574890,674.397583 
	C628.012939,662.955994 636.632935,656.511169 649.921631,655.945984 
	C654.922485,655.733276 659.117554,652.686096 662.685669,649.001892 
	C664.593933,647.031494 666.088318,644.363953 669.622986,643.992859 
	C670.616882,643.451538 671.338013,643.207642 672.523682,643.470581 
	C674.231628,645.308411 673.036926,646.336853 671.896790,647.366943 
	C663.662964,654.806274 654.734192,660.745667 643.436279,662.750305 
	C634.856445,664.272644 628.687866,669.442871 624.962830,677.473145 
	C622.860291,682.005798 619.848877,686.037415 617.334045,690.347229 
	C615.756042,693.051575 613.285278,694.640076 610.416016,695.797119 
	C607.679382,696.900696 607.577881,698.458191 610.202942,699.877625 
	C612.687439,701.221008 615.224243,702.498779 617.989014,703.195435 
	C620.264587,703.768738 621.974182,703.033875 623.844849,701.477234 
	C630.326416,696.083130 637.171448,690.975769 644.401733,686.806763 
	C653.249207,681.705444 663.099976,678.434448 672.748108,674.874756 
	C677.773499,673.020630 682.752136,672.704224 687.872192,672.405457 
	C689.536255,672.308411 691.372986,672.054626 691.406006,674.942383 
	C688.243958,678.593994 683.742310,676.956787 679.839661,678.724121 
	C678.980164,679.006470 678.479614,679.121643 677.600342,679.264282 
	C669.293823,680.821533 661.812439,683.498047 654.706848,688.118286 
	C654.008606,688.600220 653.572937,688.806030 652.774170,689.062500 
	C646.544250,691.159424 641.366333,694.296814 636.815430,699.059082 
	C636.120972,699.861755 635.560425,700.286438 634.646851,700.823608 
	C629.866882,702.102539 627.711182,706.618225 623.296997,708.150146 
z"/>
<path fill="#D2C49F" opacity="1.000000" stroke="none" 
	d="
M673.305542,644.019897 
	C672.247986,643.999451 671.493530,643.996460 670.361572,643.989746 
	C680.843384,634.895691 692.631653,628.827759 707.413391,632.439209 
	C711.741516,633.496704 716.079956,634.511597 720.680969,635.803223 
	C720.309265,638.879761 718.111938,638.164795 716.338440,637.917786 
	C713.294067,637.493652 710.319641,636.623352 706.876648,636.250610 
	C706.269165,636.129517 706.034241,636.064209 705.470459,635.860596 
	C704.041321,635.002991 702.985596,634.172546 701.232544,634.282349 
	C700.489136,634.281311 700.065674,634.278442 699.328003,634.281982 
	C697.755859,634.286804 696.522095,634.370239 695.217041,635.402344 
	C694.506592,635.692444 694.074585,635.777405 693.296631,635.810425 
	C688.477783,636.146179 684.303162,637.265808 680.770020,640.799194 
	C679.956238,641.748352 679.171692,642.169739 678.062500,642.678406 
	C677.170471,643.023315 676.560791,643.193970 675.678162,643.517578 
	C674.814697,643.841919 674.225037,643.997742 673.305542,644.019897 
z"/>
<path fill="#DAC89C" opacity="1.000000" stroke="none" 
	d="
M768.698364,640.738403 
	C769.192200,640.997314 769.362610,641.016907 769.779724,641.109741 
	C774.185669,643.066284 778.597656,644.352661 782.949829,646.702515 
	C783.666260,646.898376 784.068787,646.913635 784.763855,647.007568 
	C785.755859,647.036377 786.454529,647.024963 787.489624,647.218323 
	C790.262878,647.235474 792.696960,647.166016 795.584412,647.146484 
	C796.415771,647.645020 796.610596,648.162476 796.524170,649.161743 
	C791.013672,653.028748 785.226685,652.055237 779.828064,650.143616 
	C772.982605,647.719727 766.473450,644.362549 759.588867,641.955017 
	C757.711853,641.298584 755.926453,640.305908 755.579346,637.622437 
	C757.647827,635.741882 759.373657,637.090088 761.045044,637.858398 
	C763.422791,638.951294 765.866089,639.800842 768.698364,640.738403 
z"/>
<path fill="#DAC89C" opacity="1.000000" stroke="none" 
	d="
M704.814209,635.380188 
	C710.278259,634.240051 715.126343,637.563782 720.683960,636.326538 
	C722.650085,635.706055 724.351929,635.351562 726.422974,634.956177 
	C728.246826,634.007141 729.700378,633.095581 731.894836,633.736572 
	C732.675598,635.026794 732.539246,636.138733 731.619263,636.644226 
	C726.732300,639.328918 721.994995,642.770508 715.877869,640.540344 
	C713.381836,639.630432 710.798767,639.052979 708.207581,638.484619 
	C706.642944,638.141418 704.797302,638.008545 704.814209,635.380188 
z"/>
<path fill="#D2C49F" opacity="1.000000" stroke="none" 
	d="
M768.925171,640.638672 
	C764.382996,641.345947 760.764526,638.472412 756.307495,637.069214 
	C753.894226,638.405457 752.395081,636.487549 750.294373,636.057983 
	C748.641541,635.383179 747.241882,635.307007 745.476685,635.228149 
	C744.631775,635.116760 744.164795,634.977356 743.402100,634.583984 
	C742.963989,634.166992 742.835876,633.954712 742.865356,633.405518 
	C744.980652,631.470947 747.103882,632.099365 749.144226,632.737305 
	C755.864197,634.838318 762.496582,637.181824 768.925171,640.638672 
z"/>
<path fill="#D2C49F" opacity="1.000000" stroke="none" 
	d="
M863.569275,608.997803 
	C863.661133,606.314270 866.048584,604.748413 867.166870,602.389526 
	C869.554932,597.352600 870.694214,592.248718 869.217407,586.350098 
	C872.952820,589.512085 872.060791,593.516235 870.609680,597.724854 
	C869.146973,601.966919 867.636719,606.102783 863.569275,608.997803 
z"/>
<path fill="#D2C49F" opacity="1.000000" stroke="none" 
	d="
M810.824463,647.919189 
	C814.769348,646.415222 819.504700,648.693909 822.739624,644.303467 
	C823.068420,645.513062 823.041809,646.800537 822.826050,648.785278 
	C821.230835,650.389099 819.629944,650.298950 817.674683,650.375854 
	C816.518860,650.370605 815.750549,650.345947 814.599487,650.326538 
	C813.445557,650.290649 812.695312,650.148376 811.622681,649.729431 
	C810.845886,649.231506 810.632935,648.796936 810.824463,647.919189 
z"/>
<path fill="#D2C49F" opacity="1.000000" stroke="none" 
	d="
M783.102783,646.570923 
	C778.498474,646.257935 774.375854,643.961975 770.104126,641.517273 
	C774.737366,641.842224 779.070068,643.464050 783.102783,646.570923 
z"/>
<path fill="#DAC89C" opacity="1.000000" stroke="none" 
	d="
M742.577881,633.010376 
	C743.022949,633.068665 743.017517,633.550781 743.018555,633.791870 
	C740.472595,637.767090 737.175354,637.195129 733.604248,635.247803 
	C733.527710,634.253723 733.760864,633.764221 734.584839,633.207153 
	C737.358276,633.012085 739.745544,632.982056 742.577881,633.010376 
z"/>
<path fill="#D2C49F" opacity="1.000000" stroke="none" 
	d="
M734.717163,632.785645 
	C734.858521,633.357544 734.665405,633.611877 734.175659,633.916138 
	C733.581543,634.357239 733.145996,634.508423 732.346191,634.243408 
	C730.557556,634.323669 729.065979,634.612305 727.183350,634.908081 
	C728.784363,632.303650 731.436462,631.814026 734.717163,632.785645 
z"/>
<path fill="#D2C49F" opacity="1.000000" stroke="none" 
	d="
M796.304688,649.237305 
	C796.002197,648.599548 796.006775,648.197144 796.024536,647.495605 
	C797.013428,645.755859 797.251343,643.756714 799.505676,642.993774 
	C799.606812,644.009094 799.386047,645.071045 799.130615,646.464111 
	C799.539307,647.593994 799.231262,648.267761 798.437500,649.150330 
	C797.633484,649.576904 797.127014,649.605103 796.304688,649.237305 
z"/>
<path fill="#D2C49F" opacity="1.000000" stroke="none" 
	d="
M844.020874,626.651001 
	C844.366028,624.849548 845.869873,624.008484 847.660645,623.139526 
	C847.585938,625.162292 846.388855,626.369080 844.020874,626.651001 
z"/>
<path fill="#D2C49F" opacity="1.000000" stroke="none" 
	d="
M946.966370,658.121399 
	C945.631348,659.202087 944.131165,658.921021 942.353271,658.235718 
	C943.620667,656.621521 945.213806,656.971252 946.966370,658.121399 
z"/>
<path fill="#D2C49F" opacity="1.000000" stroke="none" 
	d="
M849.088745,622.705811 
	C849.403564,620.920349 850.797791,619.946045 852.647217,619.103943 
	C852.656494,621.161438 851.334839,622.247437 849.088745,622.705811 
z"/>
<path fill="#D2C49F" opacity="1.000000" stroke="none" 
	d="
M787.704468,647.034485 
	C787.080322,648.078491 786.264343,648.101868 785.225281,647.305298 
	C785.794556,646.170776 786.630493,646.021423 787.704468,647.034485 
z"/>
<path fill="#D2C49F" opacity="1.000000" stroke="none" 
	d="
M868.674683,583.997559 
	C868.076172,583.738281 867.583923,583.162109 867.115723,582.294067 
	C868.179993,582.079590 868.740601,582.625793 868.674683,583.997559 
z"/>
<path fill="#D2C49F" opacity="1.000000" stroke="none" 
	d="
M841.201538,628.818970 
	C841.037720,627.929932 841.623901,627.448730 842.676453,627.115601 
	C842.976074,628.100464 842.449707,628.641724 841.201538,628.818970 
z"/>
<path fill="#D2C49F" opacity="1.000000" stroke="none" 
	d="
M954.881836,659.606689 
	C954.434204,659.905701 953.923035,659.920166 953.238525,659.744385 
	C953.467041,658.097595 954.054993,658.047180 954.881836,659.606689 
z"/>
<path fill="#D2C49F" opacity="1.000000" stroke="none" 
	d="
M828.150879,639.798035 
	C828.322266,639.190674 828.821411,638.630005 829.612793,638.031128 
	C829.960388,639.018921 829.522278,639.664978 828.150879,639.798035 
z"/>
<path fill="#DAC89C" opacity="1.000000" stroke="none" 
	d="
M824.710327,649.004089 
	C825.017151,649.496094 825.011719,649.918396 825.005615,650.657898 
	C823.679138,651.721130 822.877869,651.333923 822.752686,649.463745 
	C822.923035,649.073547 823.022827,648.967590 823.073730,648.913330 
	C823.549072,648.884216 823.973572,648.909302 824.710327,649.004089 
z"/>
<path fill="#D2C49F" opacity="1.000000" stroke="none" 
	d="
M825.098999,642.782166 
	C825.246460,642.148682 825.732605,641.553345 826.508789,640.898193 
	C826.879211,641.865906 826.525085,642.594910 825.098999,642.782166 
z"/>
<path fill="#DEC385" opacity="1.000000" stroke="none" 
	d="
M822.502869,649.055420 
	C823.087585,649.936401 823.369568,650.705811 824.689941,650.937622 
	C825.446289,650.986328 825.887634,650.997498 826.660156,651.015015 
	C828.961609,653.191101 830.626038,656.105591 834.668274,654.022949 
	C836.118469,654.248108 837.237000,654.487915 838.673706,654.870911 
	C839.527283,655.543823 840.064148,656.072021 840.805786,656.794739 
	C841.807373,657.246643 842.609924,657.498108 843.706055,657.876038 
	C844.525696,658.542542 845.063232,659.071106 845.800720,659.799438 
	C852.355164,662.036011 858.912842,662.034912 865.478821,661.994385 
	C869.459351,661.969788 873.440613,661.985901 877.420959,662.030762 
	C878.197449,662.039490 879.254761,661.918945 879.400391,663.024536 
	C879.566895,664.288574 878.536499,664.877014 877.558533,664.855652 
	C870.032288,664.691406 864.007874,668.313416 858.134521,672.370544 
	C857.867920,672.554749 857.537537,672.719727 857.222900,672.750366 
	C851.273865,673.329102 846.220215,675.690857 841.072754,678.874023 
	C835.315308,682.434570 828.410950,684.074158 822.640198,687.925049 
	C821.719788,688.539185 821.067383,689.020081 821.015747,690.481445 
	C820.527161,691.209229 820.049622,691.582397 819.254395,691.954956 
	C813.514526,692.963867 808.559875,692.430664 804.400879,688.219727 
	C802.723755,686.521667 800.357483,686.171692 797.597229,686.706909 
	C795.376770,687.005859 793.806091,686.322693 792.078735,685.041626 
	C790.575012,683.572021 789.436584,682.133484 787.008606,682.731812 
	C786.211426,682.781982 785.758240,682.728210 784.989868,682.489014 
	C780.751892,679.296936 776.293457,677.808655 770.978210,677.794922 
	C770.121155,677.824158 769.632507,677.756958 768.794189,677.502197 
	C763.395264,675.238525 758.317139,673.357117 752.302917,675.185303 
	C745.254456,675.309021 738.694458,674.211182 732.011963,674.435242 
	C721.202698,674.797852 710.415283,676.082764 699.164429,675.406006 
	C697.072144,675.229919 695.425598,673.985596 693.361084,675.349731 
	C692.528381,675.579773 692.044556,675.546448 691.293579,675.158997 
	C690.822998,674.080933 690.602966,673.328979 689.468323,673.394958 
	C681.205627,673.876038 673.579041,676.377991 665.721252,679.010620 
	C658.713501,681.358459 652.784729,685.988892 645.495422,687.339722 
	C642.827637,687.834045 641.263062,690.168701 639.730347,691.842163 
	C635.125671,696.869385 627.443481,697.600769 623.796143,703.903381 
	C622.553040,706.051331 619.754944,705.242554 617.793396,704.687988 
	C614.341187,703.712097 611.143494,702.078613 608.000427,700.232117 
	C604.574463,698.219360 604.655212,696.492004 608.085693,695.437744 
	C617.432678,692.565430 619.655945,683.708435 623.637329,676.699341 
	C625.911194,672.696289 630.110962,670.108582 631.220947,665.425598 
	C631.334961,664.944580 632.303406,664.256714 632.768860,664.331177 
	C637.950745,665.160400 641.864624,661.331482 646.792053,660.570496 
	C652.694702,659.658936 658.632874,656.740112 663.538879,652.677002 
	C666.697815,650.060852 669.777710,647.349304 672.947632,644.341431 
	C673.472534,643.692322 673.942688,643.382202 674.707947,643.053101 
	C675.598816,642.999268 676.135620,642.810730 676.800537,642.216064 
	C677.790710,641.686707 678.575989,641.363708 679.679443,641.006836 
	C683.120422,637.002014 688.171326,637.008667 692.625427,635.008789 
	C693.437256,634.989136 693.883240,634.989990 694.663696,634.988098 
	C695.892822,633.796570 697.484497,634.243591 698.807800,633.257568 
	C699.476135,633.046387 699.892456,633.046997 700.621033,633.053223 
	C701.869385,634.179199 703.430847,633.790955 704.761353,634.768860 
	C705.003845,634.992676 705.000000,635.000000 705.003662,634.997559 
	C705.173035,636.749756 706.411499,636.846191 707.816528,637.031860 
	C710.077576,637.330688 712.588928,637.378235 714.493958,638.434692 
	C721.510925,642.325806 726.432861,637.514038 731.966553,634.383789 
	C732.473755,634.030396 732.898376,634.025818 733.641235,634.024231 
	C736.623047,636.910278 739.627869,634.407654 742.741821,634.299561 
	C743.447205,634.032410 743.874939,634.031921 744.623535,634.034790 
	C746.135742,635.607056 747.827454,634.934387 749.690796,635.025940 
	C752.172546,634.566956 753.480957,636.373657 755.591431,636.993530 
	C756.640564,639.400635 758.573120,640.463196 760.667236,640.906555 
	C765.893982,642.013184 770.603638,644.496704 775.254456,646.807556 
	C781.813416,650.066528 788.414612,650.633179 795.698914,649.289917 
	C796.443115,649.002014 796.888611,649.002136 797.668335,649.001099 
	C802.059265,648.306152 806.127991,648.365906 810.600159,648.903320 
	C811.750000,649.001709 812.502441,649.003357 813.631104,649.004944 
	C814.752747,649.839172 815.588867,650.121765 816.793884,649.219177 
	C818.695862,649.018921 820.389282,649.028076 822.502869,649.055420 
z"/>
<path fill="#FDFDFB" opacity="1.000000" stroke="none" 
	d="
M633.705688,700.267578 
	C634.439148,699.679077 634.893250,699.380676 635.582642,698.944458 
	C640.630066,694.733276 646.586731,692.408264 651.787781,688.297607 
	C652.441589,687.990295 652.830933,687.910339 653.512268,687.770386 
	C656.622253,687.370239 659.150330,686.448120 661.625732,684.921570 
	C666.246582,682.071960 671.434814,680.385620 676.793091,678.313721 
	C677.487732,678.053894 677.917847,678.031433 678.670898,677.996216 
	C695.074219,675.250305 711.434631,676.653625 727.489990,675.029724 
	C740.302917,673.733826 752.513245,675.992249 764.953918,676.893677 
	C770.824829,677.319092 775.940125,681.846130 781.888733,682.264282 
	C787.721436,682.674316 792.070557,686.849976 798.105225,687.265991 
	C799.643677,687.045044 800.694702,687.285889 801.990906,688.104797 
	C803.494202,689.906677 805.028381,691.088623 806.577148,692.261353 
	C807.903870,693.265991 809.132080,694.344666 808.224609,696.589722 
	C786.152588,708.303467 762.353271,712.565857 738.314270,715.753052 
	C709.518066,719.570923 680.685608,719.676880 651.471802,715.450684 
	C650.618774,715.158386 650.169006,715.074890 649.371094,715.001709 
	C647.950745,714.894226 646.873352,714.804565 645.425415,714.545593 
	C644.618958,714.227966 644.174500,714.112305 643.377930,714.000488 
	C641.953003,713.901123 640.871887,713.830505 639.427734,713.571655 
	C638.629089,713.230835 638.184753,713.109436 637.389648,712.973267 
	C634.313843,712.857727 631.801270,711.924927 628.996643,710.759277 
	C626.928467,705.652161 630.134766,703.084778 633.705688,700.267578 
z"/>
<path fill="#F3F3F3" opacity="1.000000" stroke="none" 
	d="
M535.835205,475.689026 
	C535.405029,477.553894 535.051758,479.007782 534.720642,480.466675 
	C534.049316,483.424316 532.266479,484.815552 529.270325,483.976166 
	C519.778809,481.316895 510.134796,479.784729 500.268982,479.599518 
	C496.873535,479.535797 495.093811,477.572662 495.001343,474.218079 
	C494.543335,457.602203 494.158752,440.984253 493.663391,424.369568 
	C493.557831,420.829407 495.025940,419.583252 498.468933,420.080444 
	C512.789429,422.148285 525.317688,428.461975 537.201843,436.312134 
	C539.949158,438.126862 539.141235,441.057220 539.183105,443.619141 
	C539.357788,454.297119 538.212952,464.850525 535.835205,475.689026 
z"/>
<path fill="#D2C49F" opacity="1.000000" stroke="none" 
	d="
M802.218750,689.278381 
	C801.181580,688.726379 800.405823,688.402710 799.315063,688.043152 
	C798.053406,687.951294 797.240173,687.672241 796.914917,686.384827 
	C799.261230,684.213501 802.192810,684.341858 803.744507,686.075134 
	C807.803223,690.608704 812.939331,691.192444 818.656616,691.677429 
	C817.365173,693.945618 815.183838,694.719666 812.402771,695.036926 
	C808.716248,693.416138 805.214294,692.124756 802.218750,689.278381 
z"/>
<path fill="#F1EAD0" opacity="1.000000" stroke="none" 
	d="
M633.633057,700.009277 
	C632.773865,703.494751 628.673889,705.493774 628.773438,710.155762 
	C626.697266,710.521423 625.070129,709.490173 623.187378,708.299316 
	C626.365234,705.298157 628.964111,701.559998 633.633057,700.009277 
z"/>
<path fill="#F1EAD0" opacity="1.000000" stroke="none" 
	d="
M802.006714,689.394409 
	C805.294556,690.751465 809.175415,691.433655 811.950195,694.685791 
	C810.900024,695.657288 809.770203,696.281494 808.313232,696.895020 
	C808.347046,692.562500 802.947083,693.021606 802.006714,689.394409 
z"/>
<path fill="#F1EAD0" opacity="1.000000" stroke="none" 
	d="
M637.231079,713.151245 
	C637.660889,711.906128 638.293579,712.020081 639.001587,713.142578 
	C638.515137,713.379272 637.965454,713.375122 637.231079,713.151245 
z"/>
<path fill="#F1EAD0" opacity="1.000000" stroke="none" 
	d="
M649.221558,715.201660 
	C649.565430,713.996155 650.193481,713.960999 650.984619,715.035889 
	C650.514343,715.317566 649.964722,715.368469 649.221558,715.201660 
z"/>
<path fill="#F1EAD0" opacity="1.000000" stroke="none" 
	d="
M643.213135,714.201172 
	C643.622375,712.922668 644.257751,713.011414 644.990479,714.134766 
	C644.500610,714.394409 643.946289,714.412537 643.213135,714.201172 
z"/>
<path fill="#F9F5DB" opacity="1.000000" stroke="none" 
	d="
M243.670166,279.608124 
	C238.119064,281.594269 233.802460,285.084869 228.895630,287.466492 
	C227.894669,287.952301 226.829224,289.086334 225.722321,288.345978 
	C224.469147,287.507782 225.069794,285.922943 224.975891,284.647308 
	C224.839233,282.790649 225.998810,281.582214 227.163101,280.370209 
	C235.217285,271.986145 245.119095,268.431702 256.624878,269.156677 
	C257.749207,269.227478 258.875366,269.656433 259.945862,270.063385 
	C260.705322,270.352112 261.474915,270.859009 261.448639,271.825165 
	C261.417938,272.952606 260.351624,272.880615 259.638031,273.168701 
	C254.433716,275.269867 249.222778,277.354645 243.670166,279.608124 
z"/>
<path fill="#F3F3F3" opacity="1.000000" stroke="none" 
	d="
M243.893265,932.013306 
	C240.487274,932.264465 237.499298,932.678772 234.523193,932.606201 
	C227.741241,932.440979 226.773834,931.384705 226.721649,924.658020 
	C226.550125,902.537109 226.407257,880.416016 226.246078,858.294983 
	C226.219406,854.635559 226.122223,850.976379 226.117569,847.317017 
	C226.109726,841.162231 227.959076,839.300171 234.115112,839.168091 
	C257.971527,838.656128 279.107056,855.769226 282.012939,877.950012 
	C285.489960,904.490417 271.526550,925.457153 246.278595,931.597046 
	C245.633728,931.753967 244.971054,931.837646 243.893265,932.013306 
z"/>
<path fill="#EEEDEB" opacity="1.000000" stroke="none" 
	d="
M767.981934,855.015991 
	C771.828735,864.242004 775.553284,873.115784 779.191040,882.025024 
	C781.088562,886.672180 780.420349,887.781738 775.568909,887.853027 
	C768.427307,887.958008 761.283142,887.898499 754.140137,887.876709 
	C751.240784,887.867920 748.909851,887.136108 750.365601,883.495972 
	C754.917053,872.114807 759.564819,860.772156 764.203552,849.344971 
	C767.059448,850.348816 766.670349,853.009827 767.981934,855.015991 
z"/>
<path fill="#EEEDEB" opacity="1.000000" stroke="none" 
	d="
M366.619995,889.784790 
	C364.077728,888.324219 364.866425,886.621948 365.572662,884.873596 
	C370.171906,873.487793 374.739655,862.089294 379.344513,850.705811 
	C379.815247,849.542114 380.101013,847.767822 381.689087,848.043396 
	C382.495361,848.183289 383.284149,849.649353 383.692230,850.671143 
	C388.243683,862.067566 392.689453,873.506226 397.231628,884.906433 
	C398.785095,888.805237 397.255249,890.039246 393.446136,889.989380 
	C384.647400,889.874023 375.846680,889.911621 366.619995,889.784790 
z"/>
<path fill="#DAC89C" opacity="1.000000" stroke="none" 
	d="
M810.997192,648.763306 
	C806.939453,650.854431 802.755249,649.984741 798.297363,649.287109 
	C798.289001,648.455933 798.575500,647.911804 798.978943,647.081421 
	C802.768555,646.969543 806.441284,647.143860 810.559570,647.451782 
	C810.992432,647.899048 810.989685,648.212830 810.997192,648.763306 
z"/>
<path fill="#DFC383" opacity="1.000000" stroke="none" 
	d="
M899.768433,818.296631 
	C905.496948,817.679871 909.120667,821.640015 913.494690,823.823364 
	C914.511414,824.330811 915.409790,825.075256 916.680115,825.854126 
	C917.892700,827.252075 919.416565,827.632202 920.785522,828.765198 
	C921.019470,828.977234 921.000000,829.000000 921.011353,828.990173 
	C923.741150,831.692505 924.359497,836.146729 928.679321,837.890869 
	C932.022949,839.001709 932.837341,841.746033 933.977783,844.619324 
	C935.694153,848.784729 938.110718,852.140991 940.762207,855.751831 
	C941.505371,861.751831 941.569397,867.379395 945.622925,872.430542 
	C947.738037,875.066284 945.290161,879.314819 945.765076,883.028381 
	C946.703003,890.362915 947.767151,897.867310 945.152039,905.265442 
	C944.522400,907.046631 944.009399,908.657837 942.613464,909.895203 
	C940.762451,911.536255 939.806091,913.107788 940.708252,915.932068 
	C941.770630,919.257935 938.985596,922.088867 937.305298,924.345581 
	C933.370422,929.629822 927.755432,933.564148 924.175537,939.694580 
	C917.609070,941.241821 913.212219,946.856262 906.359741,947.953369 
	C902.294739,947.541077 899.208801,950.174316 895.542236,950.037720 
	C893.572632,949.964294 891.649475,949.887512 889.409180,949.056519 
	C883.035767,945.784668 876.980713,942.753662 870.299194,940.210693 
	C869.996338,940.004883 870.000000,940.000000 869.997559,940.002441 
	C868.983398,938.921570 867.923523,937.903015 866.230835,937.206299 
	C865.661926,936.545532 865.345520,936.074890 865.005127,935.308350 
	C864.937744,933.372131 863.466736,933.133362 862.224060,932.221924 
	C861.990845,932.002441 861.977478,931.520569 861.975708,931.279541 
	C857.985046,928.260071 856.014587,923.668152 852.241455,920.239807 
	C851.997986,920.002441 851.981934,919.519104 851.977417,919.277344 
	C851.558838,918.511597 851.012085,917.954834 851.084167,917.294495 
	C851.622253,912.362854 851.487610,907.752686 846.572998,904.721619 
	C845.813477,904.253174 845.722473,902.812073 846.043152,901.896484 
	C846.955017,899.292297 845.949219,897.043701 845.020142,894.368408 
	C844.998657,893.551880 844.997375,893.110535 844.998047,892.338257 
	C846.374146,886.015564 847.053345,879.947937 846.978516,873.394653 
	C846.975586,872.548035 846.982849,872.105774 846.995056,871.331726 
	C847.740234,870.390686 847.987244,869.574768 847.981445,868.323120 
	C848.145691,867.134766 848.311096,866.276794 848.730164,865.205811 
	C852.128601,863.601929 853.924500,861.598572 852.926270,857.801270 
	C852.361938,855.654785 854.168518,853.771545 854.154541,851.313599 
	C854.501099,850.103455 854.989502,849.208618 855.722351,848.130981 
	C860.189331,845.296509 861.348083,845.728394 862.313843,850.335571 
	C862.450073,850.985474 862.443176,851.673401 862.651062,852.301208 
	C863.732788,855.568054 864.159363,859.451538 868.362854,860.341248 
	C872.653870,861.249390 873.873657,857.434814 875.800842,854.902405 
	C876.923828,853.426880 878.129578,852.137573 879.664978,851.073242 
	C884.432373,847.768127 884.924866,844.458130 881.269531,839.074585 
	C880.829041,838.659546 880.664124,838.480347 880.282593,838.006836 
	C876.833923,834.855957 875.233765,834.913208 873.122192,838.374390 
	C871.623047,840.831665 870.051880,843.140381 867.475952,844.515686 
	C865.425659,845.610291 862.977295,847.047729 861.438110,844.160461 
	C860.173584,841.788574 860.455627,839.261108 863.463806,837.974426 
	C864.249512,837.638306 864.863037,837.099731 865.698730,836.239441 
	C865.964966,834.413574 866.142700,832.979858 868.582886,832.976440 
	C873.047485,829.350769 877.471802,826.134705 881.802429,822.280273 
	C886.655029,821.555054 890.233154,817.552490 895.570190,818.054199 
	C897.039612,819.112305 898.162659,819.697021 899.768433,818.296631 
z"/>
<path fill="#DAC89C" opacity="1.000000" stroke="none" 
	d="
M880.752014,838.286682 
	C885.617126,840.166748 887.094421,848.666931 882.626343,850.889709 
	C878.500427,852.942261 876.898682,856.583862 874.128479,859.449951 
	C870.740662,862.955017 865.554688,862.763000 863.499756,858.515625 
	C862.309814,856.056152 860.700195,853.550354 861.002319,850.532410 
	C861.377197,846.788696 859.392822,846.774292 856.350098,847.919312 
	C856.236267,844.688965 859.308533,842.770203 859.945984,839.316284 
	C859.968750,838.956543 860.003601,838.992065 859.981323,838.985901 
	C861.730591,838.005249 863.502197,837.030701 865.611084,836.013000 
	C865.953735,837.761536 864.807434,838.447510 863.333984,839.164856 
	C861.161438,840.222534 861.646851,842.464417 862.384949,843.954529 
	C863.347656,845.897888 865.067139,844.520508 866.231873,843.825684 
	C868.965088,842.195312 871.314636,840.227356 872.109436,836.821777 
	C872.808044,833.828552 875.452332,834.150391 877.762756,833.999939 
	C880.100098,833.847839 881.196106,834.835999 880.985107,837.607727 
	C875.118103,840.618469 870.606323,844.517639 868.543823,850.818542 
	C868.234375,851.763916 867.765015,852.663574 867.612000,853.654663 
	C867.409058,854.969299 866.998718,856.617432 868.299316,857.333069 
	C869.810669,858.164795 870.642883,856.557007 871.406128,855.550903 
	C875.337402,850.368835 878.658569,844.847778 880.752014,838.286682 
z"/>
<path fill="#DAC590" opacity="1.000000" stroke="none" 
	d="
M844.734375,894.229248 
	C847.086548,896.208862 848.919434,898.424377 847.260681,901.812683 
	C846.654297,903.051331 846.951233,904.533081 848.458008,905.144592 
	C853.442871,907.167725 853.781006,910.783997 852.173218,915.237976 
	C851.853394,916.124084 852.039856,917.192993 851.982910,918.606567 
	C849.631348,918.708679 849.491394,916.709656 848.865540,915.028748 
	C847.716309,911.942078 846.860962,908.773865 845.059509,905.902222 
	C842.813416,902.321655 845.341370,898.258423 844.734375,894.229248 
z"/>
<path fill="#DAC590" opacity="1.000000" stroke="none" 
	d="
M870.148987,940.314453 
	C877.320435,940.435730 883.183838,944.190674 888.946655,948.653381 
	C882.111877,947.678650 875.682251,945.322510 870.148987,940.314453 
z"/>
<path fill="#DAC590" opacity="1.000000" stroke="none" 
	d="
M906.236572,948.273682 
	C911.784363,945.476013 916.018982,939.608521 923.587891,939.999023 
	C918.573608,943.688599 913.877075,948.885986 906.236572,948.273682 
z"/>
<path fill="#DAC590" opacity="1.000000" stroke="none" 
	d="
M853.860474,851.318237 
	C855.789551,854.856201 853.709839,858.883240 854.573059,862.931274 
	C855.067810,865.251282 851.737122,864.888977 849.400513,864.996277 
	C848.656372,859.868225 851.888672,856.003113 853.860474,851.318237 
z"/>
<path fill="#DAC590" opacity="1.000000" stroke="none" 
	d="
M881.679138,822.140076 
	C879.510925,827.469116 874.552490,830.170227 869.319824,832.971313 
	C870.836731,826.793762 876.427490,824.921692 881.679138,822.140076 
z"/>
<path fill="#DAC590" opacity="1.000000" stroke="none" 
	d="
M846.690430,873.281738 
	C849.215576,879.433411 847.067993,885.598389 845.388672,891.912476 
	C844.549316,885.791992 845.690552,879.698608 846.690430,873.281738 
z"/>
<path fill="#DAC590" opacity="1.000000" stroke="none" 
	d="
M852.036255,920.357971 
	C857.368469,921.466370 858.585815,926.918091 861.947388,930.687500 
	C855.841980,930.312195 854.495361,924.997864 852.036255,920.357971 
z"/>
<path fill="#DAC590" opacity="1.000000" stroke="none" 
	d="
M928.975098,837.627441 
	C927.379211,839.842163 925.894348,838.741882 925.030518,837.372864 
	C923.499939,834.947205 921.514099,832.710022 921.019592,829.353638 
	C925.315247,830.169556 926.962097,833.881470 928.975098,837.627441 
z"/>
<path fill="#DAC590" opacity="1.000000" stroke="none" 
	d="
M940.999023,855.625854 
	C937.224976,853.579468 933.922180,850.831177 934.013611,845.368652 
	C939.241089,846.431458 938.989136,851.606140 940.999023,855.625854 
z"/>
<path fill="#DAC590" opacity="1.000000" stroke="none" 
	d="
M920.974548,828.623230 
	C919.345459,828.855469 917.184326,829.612976 917.009705,826.380127 
	C918.777344,825.942749 920.404236,826.152710 920.974548,828.623230 
z"/>
<path fill="#DAC590" opacity="1.000000" stroke="none" 
	d="
M899.619690,818.050537 
	C899.141907,820.959656 897.997681,822.242737 896.022217,818.391968 
	C897.055847,818.052429 898.135498,818.040222 899.619690,818.050537 
z"/>
<path fill="#DAC590" opacity="1.000000" stroke="none" 
	d="
M862.033203,932.322754 
	C863.662292,932.184143 865.851868,931.672485 865.225464,934.807312 
	C863.890076,934.372986 862.494446,934.106934 862.033203,932.322754 
z"/>
<path fill="#DAC590" opacity="1.000000" stroke="none" 
	d="
M866.126709,937.310303 
	C867.765686,936.952393 869.403076,937.147827 869.954468,939.648315 
	C868.237122,940.007629 867.226807,938.851501 866.126709,937.310303 
z"/>
<path fill="#DAC590" opacity="1.000000" stroke="none" 
	d="
M847.723511,868.203979 
	C849.240479,869.121338 849.375183,870.120483 847.322632,870.952637 
	C847.155518,870.138428 847.311096,869.276917 847.723511,868.203979 
z"/>
<path fill="#DAC590" opacity="1.000000" stroke="none" 
	d="
M834.773193,653.746094 
	C829.705933,658.117981 829.388733,658.027100 827.036133,651.380066 
	C830.035156,650.229980 831.677856,653.737427 834.773193,653.746094 
z"/>
<path fill="#DAC590" opacity="1.000000" stroke="none" 
	d="
M845.960266,659.676392 
	C845.099121,659.920776 844.316589,659.672485 844.044189,658.321228 
	C844.905090,658.077148 845.687073,658.326233 845.960266,659.676392 
z"/>
<path fill="#DAC590" opacity="1.000000" stroke="none" 
	d="
M840.959717,656.676331 
	C840.102661,656.920776 839.321472,656.674255 839.040039,655.331177 
	C839.899536,655.080139 840.682678,655.324280 840.959717,656.676331 
z"/>
<path fill="#F1EAD0" opacity="1.000000" stroke="none" 
	d="
M796.657837,686.010376 
	C797.564819,686.545166 798.134644,687.032104 798.852295,687.763184 
	C797.552795,689.600647 795.850525,689.052246 794.454956,688.196899 
	C786.093567,683.072876 775.727417,683.734314 767.341736,678.698425 
	C764.934692,677.252869 762.119080,678.201843 759.511108,677.701538 
	C753.045410,676.461243 745.892090,674.607788 740.029541,675.495056 
	C722.886292,678.089722 705.593994,675.142090 688.603455,678.252136 
	C685.583923,678.804871 682.526978,678.872131 679.231445,678.252930 
	C682.370850,675.442017 686.645203,676.654846 690.660706,675.096924 
	C691.453247,674.903748 691.886353,674.894531 692.642578,674.845459 
	C693.961243,674.028076 695.127686,673.987732 696.664429,674.043823 
	C715.387695,674.251282 733.754272,671.577454 752.576172,673.942993 
	C758.309326,673.675354 763.377014,674.758484 768.688660,676.673706 
	C769.468994,676.930908 769.906738,676.957886 770.673462,676.984253 
	C775.720154,677.741577 780.243408,679.087036 784.735168,681.659302 
	C785.467346,681.922852 785.900818,681.957214 786.660522,681.992004 
	C788.710815,681.870117 790.185059,682.479492 791.752441,683.784302 
	C793.438904,684.676392 794.879761,685.319458 796.657837,686.010376 
z"/>
<path fill="#F1EAD0" opacity="1.000000" stroke="none" 
	d="
M676.657776,678.043945 
	C676.902100,679.197937 677.038635,680.679993 675.502869,680.793396 
	C669.111816,681.265259 664.238403,685.003540 659.125061,688.225952 
	C657.501099,689.249451 656.006897,689.033813 654.141357,687.915466 
	C655.018860,684.080078 658.758179,684.164307 661.401550,682.968506 
	C666.138855,680.825439 671.024658,678.811890 676.657776,678.043945 
z"/>
<path fill="#F1EAD0" opacity="1.000000" stroke="none" 
	d="
M651.679077,688.046814 
	C651.009033,691.333862 648.011963,692.443787 645.437927,693.964600 
	C642.527161,695.684265 639.521057,697.242737 636.187195,698.838928 
	C639.562683,693.175598 645.582092,690.811768 651.679077,688.046814 
z"/>
<path fill="#DAC89C" opacity="1.000000" stroke="none" 
	d="
M692.763306,634.727295 
	C689.599670,638.411499 684.297241,637.869995 680.357666,640.938293 
	C680.035583,639.836975 679.889954,638.451599 681.196167,638.029663 
	C684.965454,636.812073 688.339539,634.314697 692.763306,634.727295 
z"/>
<path fill="#DAC89C" opacity="1.000000" stroke="none" 
	d="
M698.679443,633.029785 
	C698.769714,635.081360 697.237549,635.003845 695.371704,634.989746 
	C695.212463,632.844666 696.803650,633.009338 698.679443,633.029785 
z"/>
<path fill="#DAC89C" opacity="1.000000" stroke="none" 
	d="
M704.932129,634.634460 
	C703.633606,634.818604 701.978271,635.536011 701.028076,633.405273 
	C702.335449,633.164246 704.003235,632.412842 704.932129,634.634460 
z"/>
<path fill="#DAC590" opacity="1.000000" stroke="none" 
	d="
M676.705994,642.030762 
	C676.820068,642.906189 676.849121,644.044983 675.180969,643.250366 
	C675.470886,642.706665 675.938721,642.379211 676.705994,642.030762 
z"/>
<path fill="#DAC89C" opacity="1.000000" stroke="none" 
	d="
M749.775513,634.748962 
	C748.317749,635.522644 746.424988,638.973206 744.970581,634.382263 
	C746.477356,634.096130 748.055542,633.671326 749.775513,634.748962 
z"/>
<path fill="#DAC89C" opacity="1.000000" stroke="none" 
	d="
M816.627930,649.006226 
	C816.460938,651.096985 815.601379,651.777649 814.058716,649.334290 
	C814.756042,649.004150 815.504700,649.003479 816.627930,649.006226 
z"/>
<path fill="#D2C49F" opacity="1.000000" stroke="none" 
	d="
M768.940552,676.550110 
	C763.877319,676.108948 758.723450,675.313965 753.295776,674.226318 
	C758.722351,671.718933 763.800598,673.856445 768.940552,676.550110 
z"/>
<path fill="#D2C49F" opacity="1.000000" stroke="none" 
	d="
M784.959595,681.551147 
	C780.515259,680.431641 775.996582,678.974792 771.240234,677.250854 
	C776.400391,675.865540 780.834351,677.911194 784.959595,681.551147 
z"/>
<path fill="#D2C49F" opacity="1.000000" stroke="none" 
	d="
M791.946899,683.691833 
	C790.475708,683.525513 788.953308,683.017700 787.208862,682.251099 
	C789.276550,680.083008 790.625977,681.572632 791.946899,683.691833 
z"/>
<path fill="#DAC89C" opacity="1.000000" stroke="none" 
	d="
M696.800903,673.790405 
	C696.121948,675.171143 694.879639,674.943970 693.328125,674.863708 
	C693.548157,672.615417 694.959290,672.764771 696.800903,673.790405 
z"/>
<path fill="#F9F5DB" opacity="1.000000" stroke="none" 
	d="
M880.990112,838.010559 
	C881.017395,846.842529 875.066040,852.687927 870.242798,858.975037 
	C868.618286,861.092590 866.661316,859.906860 866.053528,857.338928 
	C864.338989,850.095032 872.431702,839.053345 880.591614,838.013184 
	C880.978882,838.019714 881.000000,838.000000 880.990112,838.010559 
z"/>
</svg>