<svg xmlns="http://www.w3.org/2000/svg" width="27px" height="27px" viewBox="0 0 37 37"><title>Facebook</title><g fill="none" fill-rule="evenodd"><path d="M-1-1h39v39H-1z"/><path d="M30.8333333 0H6.16666667C2.76102222 0 0 2.76102222 0 6.16666667V30.8333333C0 34.2389778 2.76102222 37 6.16666667 37H17.6913444V23.3198667h-2.4761222c-.8682666 0-.8682666 0-.8682666-.8736111v-5.1068223h3.3398666c0-.1845889-.0016444-.3321777.0004111-.4801777.0197334-1.4331334-.0415222-2.8736667.0772889-4.2985778C18.0222889 9.4641889 19.8677667 6.77757778 23.6023 6.4787c2.0925556-.16732222 4.2069-.06207778 6.3113778-.07893333.0106889 0 .0213778.01233333.0719444.04316666v5.75349997h-.4123444c-1.0857445 0-2.1710778-.0037-3.2564111.0012334-.9369223.0049333-1.5038445.4407111-1.5535889 1.3648889-.0666 1.2337444-.0164445 2.4736555-.0164445 3.7468666h5.3317c-.0316555.3790445-.0555.7186222-.0892111 1.0569667-.1562222 1.5535889-.3202555 3.1067667-.4690778 4.6611778-.0259.2713333-.1714333.2955889-.3897333.2947666-1.3048667-.0057555-2.6101444-.0028777-3.9150111-.0024666h-.4916889V37h6.1095222C34.2389778 37 37 34.2389778 37 30.8333333V6.16666667C37 2.76102222 34.2389778 0 30.8333333 0" fill="#e6d49b"/></g></svg>