<svg xmlns="http://www.w3.org/2000/svg" width="27px" height="27px" viewBox="0 0 42 42"><title>Instagram</title><path fill="#e6d49b" fill-rule="evenodd" d="M38.207 23.364c.001.7 0 1.399-.009 2.098-.009.735-.02 1.47-.045 2.205a54.433 54.433 0 0 1-.101 2.168c-.096 1.312-.323 2.597-.905 3.792-.833 1.708-2.162 2.88-3.962 3.526a10.61 10.61 0 0 1-2.302.527c-.598.073-1.199.105-1.8.133-1.09.05-2.182.075-3.273.087-2.518.03-5.036.01-7.554.014-.5 0-1-.002-1.501-.007-.614-.005-1.228-.006-1.84-.023a141.38 141.38 0 0 1-2.353-.086c-1.003-.044-1.999-.144-2.971-.405-1.032-.276-1.997-.688-2.833-1.369a6.966 6.966 0 0 1-2.284-3.33 11.276 11.276 0 0 1-.443-2.017c-.097-.752-.123-1.507-.156-2.262-.037-.85-.056-1.7-.066-2.551-.035-3.106-.01-6.212-.013-9.318-.001-.616.01-1.232.029-1.847.026-.857.055-1.714.104-2.57.06-1.056.213-2.096.54-3.109.498-1.548 1.425-2.778 2.77-3.698.686-.47 1.454-.768 2.253-.99.65-.182 1.315-.287 1.987-.353.817-.08 1.638-.1 2.458-.133a70.394 70.394 0 0 1 2.003-.043c3.132-.036 6.264-.01 9.396-.014.617-.001 1.234.011 1.85.028.982.026 1.963.052 2.942.125 1.126.084 2.23.277 3.288.69.841.33 1.585.799 2.245 1.413 1.08 1.003 1.712 2.247 2.062 3.651.184.739.283 1.49.333 2.249.043.66.07 1.322.09 1.984l.047 1.52c.031 2.638.009 5.276.014 7.915m3.776-6.563c0 .012.01.024.017.037v8.026c-.006.012-.017.024-.017.037l-.003 1.16c-.007.337-.006.674-.015 1.011-.018.63-.041 1.259-.067 1.888a24.591 24.591 0 0 1-.203 2.464 14.43 14.43 0 0 1-.618 2.597c-.656 1.934-1.783 3.544-3.357 4.854-1.222 1.015-2.625 1.675-4.147 2.105-1.023.289-2.07.445-3.13.525-.854.065-1.71.09-2.567.121-.54.02-1.08.022-1.621.032-.12-.002-.238-.006-.358-.004-.042.001-.092-.026-.127.023h-9.54c-.01-.034-.04-.024-.063-.024-.148 0-.295.002-.442.003-.336-.004-.672-.005-1.008-.014a114.32 114.32 0 0 1-2.394-.089 19.325 19.325 0 0 1-2.79-.311 13.084 13.084 0 0 1-3.22-1.057c-1.104-.532-2.065-1.257-2.919-2.128-.8-.816-1.454-1.73-1.948-2.758C.696 33.734.325 32.073.18 30.356c-.056-.656-.08-1.314-.105-1.972-.028-.709-.056-1.418-.053-2.127l-.003-.984c0-.02-.012-.04-.018-.061V16.49c.006-.02.018-.04.018-.061l.003-.984c.005-.308.005-.616.014-.924.018-.615.042-1.23.067-1.844.032-.756.08-1.51.18-2.26.124-.915.325-1.81.62-2.686A10.68 10.68 0 0 1 3.8 3.243C5.027 2.103 6.455 1.329 8.047.83c1.3-.408 2.64-.597 3.996-.67.896-.05 1.793-.08 2.69-.106.64-.02 1.279-.028 1.918-.027 3.285.005 6.57-.024 9.856.018.741.01 1.482.029 2.222.06.667.028 1.334.053 2 .113.825.074 1.642.195 2.445.396 1.174.293 2.3.709 3.328 1.348 2.202 1.37 3.736 3.272 4.576 5.718.423 1.232.65 2.5.748 3.795.065.858.093 1.719.123 2.58.019.527.021 1.056.03 1.585l.004 1.16zM20.934 27.785c-3.84-.033-6.946-3.156-6.925-6.94-.02-3.81 3.167-7.004 7.131-6.93 3.743.07 6.881 3.128 6.852 6.994-.028 3.789-3.163 6.91-7.058 6.876zm.266-17.634c-6.11-.104-11.005 4.8-10.986 10.692-.02 5.861 4.765 10.651 10.676 10.705 6.026.056 10.85-4.754 10.897-10.6.048-5.979-4.79-10.698-10.587-10.797zm10.979-2.923c-1.424.018-2.53 1.162-2.496 2.564.035 1.407 1.182 2.443 2.527 2.447 1.446-.01 2.565-1.174 2.523-2.581a2.503 2.503 0 0 0-2.554-2.43z"/></svg>