<svg width="41px" height="41px" viewBox="0 0 41 40" fill="none" xmlns="http://www.w3.org/2000/svg"><mask id="mask0_1211_3587" style="mask-type:alpha" maskUnits="userSpaceOnUse" x="0" y="0" width="41" height="40"><rect x="0.316406" width="40" height="40" fill="white"/></mask><g mask="url(#mask0_1211_3587)"><path fill-rule="evenodd" clip-rule="evenodd" d="M20.0302 2C16.1027 2 12.9093 5.19293 12.9093 9.12081V9.29321H8.2023C7.81984 9.29321 7.49772 9.58563 7.46005 9.96772L5.31641 34.156C5.31641 36.8172 7.7075 38.9231 10.6534 38.9231H29.4146C32.3606 38.9231 34.7516 36.8172 34.7516 34.2237L32.6003 9.96772C32.563 9.58563 32.2481 9.29321 31.8584 9.29321H27.151V9.12081C27.151 5.19293 23.958 2 20.0302 2ZM14.3935 9.12081C14.3935 6.01023 16.9196 3.48413 20.0302 3.48413C23.1407 3.48413 25.6668 6.01023 25.6668 9.12081V9.29321H14.3935V9.12081ZM31.1764 10.7773L33.26 34.2533C33.2377 36.0149 31.5212 37.439 29.4076 37.439H10.6536C8.53957 37.439 6.82308 36.0149 6.80078 34.2533L8.88437 10.7773H12.9096V14.2103C12.9096 14.6225 13.2394 14.9522 13.6518 14.9522C14.0639 14.9522 14.3937 14.6225 14.3937 14.2103V10.7773H25.6671V14.2103C25.6671 14.6225 25.9969 14.9522 26.4093 14.9522C26.8215 14.9522 27.1512 14.6225 27.1512 14.2103V10.7773H31.1764Z" fill="#374246"/><path d="M12.9093 9.29321V9.79321H13.4093V9.29321H12.9093ZM7.46005 9.96772L6.96244 9.91866L6.962 9.92358L7.46005 9.96772ZM5.31641 34.156L4.81836 34.1118L4.81641 34.1339V34.156H5.31641ZM34.7516 34.2237H35.2516V34.2016L35.2496 34.1795L34.7516 34.2237ZM32.6003 9.96772L33.0983 9.92354L33.0979 9.91915L32.6003 9.96772ZM27.151 9.29321H26.651V9.79321H27.151V9.29321ZM25.6668 9.29321V9.79321H26.1668V9.29321H25.6668ZM14.3935 9.29321H13.8935V9.79321H14.3935V9.29321ZM31.1764 10.7773L31.6745 10.7331L31.634 10.2773H31.1764V10.7773ZM33.26 34.2533L33.76 34.2597L33.7603 34.2343L33.7581 34.2091L33.26 34.2533ZM6.80078 34.2533L6.30274 34.2091L6.3005 34.2343L6.30082 34.2597L6.80078 34.2533ZM8.88437 10.7773V10.2773H8.42678L8.38632 10.7331L8.88437 10.7773ZM12.9096 10.7773H13.4096V10.2773H12.9096V10.7773ZM14.3937 10.7773V10.2773H13.8937V10.7773H14.3937ZM25.6671 10.7773H26.1671V10.2773H25.6671V10.7773ZM27.1512 10.7773V10.2773H26.6512V10.7773H27.1512ZM20.0302 1.5C15.8265 1.5 12.4093 4.91677 12.4093 9.12081H13.4093C13.4093 5.46909 16.3788 2.5 20.0302 2.5V1.5ZM12.4093 9.12081V9.29321H13.4093V9.12081H12.4093ZM12.9093 8.79321H8.2023V9.79321H12.9093V8.79321ZM8.2023 8.79321C7.56162 8.79321 7.02525 9.28174 6.96246 9.91866L7.95764 10.0168C7.97018 9.88951 8.07806 9.79321 8.2023 9.79321V8.79321ZM6.962 9.92358L4.81836 34.1118L5.81445 34.2001L7.9581 10.0119L6.962 9.92358ZM4.81641 34.156C4.81641 37.1468 7.48809 39.4231 10.6534 39.4231V38.4231C7.92691 38.4231 5.81641 36.4875 5.81641 34.156H4.81641ZM10.6534 39.4231H29.4146V38.4231H10.6534V39.4231ZM29.4146 39.4231C32.5751 39.4231 35.2516 37.1512 35.2516 34.2237H34.2516C34.2516 36.4832 32.1461 38.4231 29.4146 38.4231V39.4231ZM35.2496 34.1795L33.0983 9.92354L32.1022 10.0119L34.2535 34.2679L35.2496 34.1795ZM33.0979 9.91915C33.036 9.28482 32.5094 8.79321 31.8584 8.79321V9.79321C31.9869 9.79321 32.0899 9.88643 32.1026 10.0163L33.0979 9.91915ZM31.8584 8.79321H27.151V9.79321H31.8584V8.79321ZM27.651 9.29321V9.12081H26.651V9.29321H27.651ZM27.651 9.12081C27.651 4.91679 24.2342 1.5 20.0302 1.5V2.5C23.6819 2.5 26.651 5.46908 26.651 9.12081H27.651ZM14.8935 9.12081C14.8935 6.28638 17.1957 3.98413 20.0302 3.98413V2.98413C16.6434 2.98413 13.8935 5.73409 13.8935 9.12081H14.8935ZM20.0302 3.98413C22.8646 3.98413 25.1668 6.28638 25.1668 9.12081H26.1668C26.1668 5.73409 23.4169 2.98413 20.0302 2.98413V3.98413ZM25.1668 9.12081V9.29321H26.1668V9.12081H25.1668ZM25.6668 8.79321H14.3935V9.79321H25.6668V8.79321ZM14.8935 9.29321V9.12081H13.8935V9.29321H14.8935ZM30.6784 10.8215L32.762 34.2975L33.7581 34.2091L31.6745 10.7331L30.6784 10.8215ZM32.7601 34.247C32.7422 35.6566 31.3332 36.939 29.4076 36.939V37.939C31.7093 37.939 33.7332 36.3732 33.76 34.2597L32.7601 34.247ZM29.4076 36.939H10.6536V37.939H29.4076V36.939ZM10.6536 36.939C8.72757 36.939 7.31858 35.6565 7.30074 34.247L6.30082 34.2597C6.32758 36.3733 8.35157 37.939 10.6536 37.939V36.939ZM7.29882 34.2975L9.38241 10.8215L8.38632 10.7331L6.30274 34.2091L7.29882 34.2975ZM8.88437 11.2773H12.9096V10.2773H8.88437V11.2773ZM12.4096 10.7773V14.2103H13.4096V10.7773H12.4096ZM12.4096 14.2103C12.4096 14.8988 12.9635 15.4522 13.6518 15.4522V14.4522C13.5153 14.4522 13.4096 14.3461 13.4096 14.2103H12.4096ZM13.6518 15.4522C14.34 15.4522 14.8937 14.8987 14.8937 14.2103H13.8937C13.8937 14.3463 13.7878 14.4522 13.6518 14.4522V15.4522ZM14.8937 14.2103V10.7773H13.8937V14.2103H14.8937ZM14.3937 11.2773H25.6671V10.2773H14.3937V11.2773ZM25.1671 10.7773V14.2103H26.1671V10.7773H25.1671ZM25.1671 14.2103C25.1671 14.8988 25.721 15.4522 26.4093 15.4522V14.4522C26.2728 14.4522 26.1671 14.3461 26.1671 14.2103H25.1671ZM26.4093 15.4522C27.0976 15.4522 27.6512 14.8986 27.6512 14.2103H26.6512C26.6512 14.3463 26.5454 14.4522 26.4093 14.4522V15.4522ZM27.6512 14.2103V10.7773H26.6512V14.2103H27.6512ZM27.1512 11.2773H31.1764V10.2773H27.1512V11.2773Z" fill="#374246"/></g></svg>